<?xml version="1.0" standalone="yes"?>
<svg xmlns="http://www.w3.org/2000/svg" width="1488" height="1104">
<path style="fill:#171512; stroke:none;" d="M0 0L0 1104L1488 1104L1488 0L0 0z"/>
<path style="fill:#bb282b; stroke:none;" d="M750 165L750 167L752 167L752 165L750 165M639 174L639 176L641 174L639 174M700.667 178.333L701.333 178.667L700.667 178.333M663 181L662 183L664 183L663 181M723 181L723 182L726 182L723 181M786 182L786 185L789 184L789 183L786 182M772.667 186.333L773.333 186.667L772.667 186.333M741 191L741 193L744 193L744 191L741 191M679 192L679 196L681 196L681 192L679 192M705 194L705 195L708 196L708 193L705 194M729.667 193.333L730.333 193.667L729.667 193.333M582.667 194.333L583.333 194.667L582.667 194.333M692 194L693 195L692 194M716 194L716 196L719 196L719 194L716 194M860.667 194.333L861.333 194.667L860.667 194.333M597.667 195.333L598.333 195.667L597.667 195.333M694 195L692 196L692 197L694 195M766 196L770 198L766 196M822 196L823 197L822 196M834 196L836 199L837 198L836 196L834 196M655 197L657 200L655 197M667 197L669 200L667 197M642 199L642 202L644 202L644 199L642 199M801 201L801 205L804 205L804 201L801 201M814 202C814.605 204.767 815.289 204.577 818 204L818 203L814 202M630.333 203.667L630.667 204.333L630.333 203.667M845 203L845 205L847 205L847 203L845 203M704 204L702 208L706 208L704 204M714 204L712 208C714.785 207.266 715.832 206.471 714 204M724 208L728 204L724 208M735 205C736.127 207.006 736.873 207.006 738 205L735 205M859 205L858 209L862 209L861 205L859 205M884 205L884 208L887 208L887 205L884 205M620 206L620 209L623 209L623 206L620 206M690 206L689 210L693 209L693 207L692 206L690 206M746 209L750 209L749 206L746 209M588 207L589 208L588 207M676 210L680 207L676 210M758 207L758 210L762 210L762 207L758 207M770 212L774 212L774 208L770 212M834 209L837 212L838 209L837 208L834 209M574 209L574 212L576 212L576 209L574 209M666 209L665 213L668 209L666 209M782 209L781 212L782 213L785 212L785 210L782 209M823 209L826 211L823 209M654 211L653 214L656 215L657 214L656 211L654 211M794 211L793 212L794 215L798 212L794 211M870 211L873 214L872 211L870 211M607 213L608 214L607 213M883 216L888 216C886.188 213.495 884.744 213.446 883 216M563 214L563 216L565 216L565 214L563 214M642 214L642 218L645 215L642 214M811 214L812 215L811 214M811 216L812 217L811 216M845 216L845 219L849 218L845 216M859 216L858 220L861 220L859 216M632 217L631 222L633 222L632 217M807 217L809 219L809 217L807 217M818 217L818 221L822 221L822 217L818 217M588 219L588 222L590 221L590 220L588 219M622 220L624 224L624 220L622 220M828 220L827 224C830.56 224.547 831.419 223.49 832 220L828 220M891 220L891 223L894 223L894 220L891 220M867 222L868 225L872 224L872 222L867 222M920 223L920 225L923 225L923 223L920 223M611 224L610 225L610 226L610 227L613 224L611 224M841 227L841 229L844 230L845 226L841 227M600 231L603 228L600 231M853 229L854 233L856 233L857 229L853 229M880 230L884 235L880 230M589 231L588 235L589 231M862 237C865.036 236 865.494 235.137 865 232L862 237M891 232L890 237C894.129 236.312 895.605 233.53 891 232M576 235L578 238L576 235M555 236L556 237L555 236M872 243L876 243L876 238L872 243M903 240L906 245C906.494 241.863 906.036 241 903 240M566 241L565 244L568 244L566 241M882 249L886 248L886 243C882.048 243.659 881.114 245.109 882 249M914 246L914 251L917 251L916 246L914 246M894 250C893.197 253.435 893.698 254.672 897 256L898 251L894 250M922 252L921 256L925 255L925 253L924 252L922 252M545.667 255.333L546.333 255.667L545.667 255.333M904 256L904 261L909 257L904 256M968 258L968 262L968 258M912 266C915.403 265.407 916.138 264.442 916 261L912 266M932 261L932 266L936 261L932 261M956 264C955.506 267.137 955.964 268 959 269L958 264L956 264M979 268L979 272L980 272L979 268M923 270L923 272C926.137 272.494 927 272.036 928 269L923 270M941 269L942 273L946 272L946 270L941 269M969 270L970 271L969 270M515 273L516 274L515 273M934 275L934 281L938 280L934 275M950 281L954 281C954.814 275.722 950.781 276.318 950 281M506 280L507 281L506 280M974 280L973 281L973 283L974 284L976 284L977 283L977 281L976 280L974 280M943 289L946 284C942.964 285 942.506 285.863 943 289M963 289L966 285L963 289M949 293C952.293 293.069 953.054 292.141 954 289L949 293M972 291L971 294L974 294L972 291M984 291L985 294L989 293L984 291M1006 297L1010 299L1006 297M995 298L992 301L996 301L995 298M961 300L960 304C964.468 304.689 965.305 301.431 961 300M983 300L981 303C983.251 302.527 984.118 302.14 983 300M1004 309L1008 310L1009 307L1004 309M970 307L969 313C972.302 311.672 972.803 310.435 972 307L970 307M988 312L992 311L988 312M976 316L977 321C980.803 318.889 981.031 315.228 976 316M1011 317L1014 320L1011 317M434 318L435 319L434 318M996 320L995 324L1000 321L996 320M986 330L988 330L989 325C985.964 326 985.506 326.863 986 330M413 327L414 328L413 327M1001 329L1006 332L1006 328L1001 329M458.333 330.667L458.667 331.333L458.333 330.667M992 338L997 336L995 332C992.162 333.741 991.492 334.701 992 338M1009 340L1013 337L1009 340z"/>
<path style="fill:#0553ab; stroke:none;" d="M712 344L728 343L728 342L723 342L730 339C724.024 336.492 715.459 338.361 712 344z"/>
<path style="fill:#02a0e0; stroke:none;" d="M723 342C733.043 343.119 733.132 349.943 731 358L732 359C748.846 352.62 730.418 330.558 723 342z"/>
<path style="fill:#0553ab; stroke:none;" d="M732 339L733 340L732 339M734 340L735 341L734 340z"/>
<path style="fill:#bb282b; stroke:none;" d="M450 341L451 342L450 341z"/>
<path style="fill:#0553ab; stroke:none;" d="M737 342L738 343L737 342M729 343L730 344L729 343z"/>
<path style="fill:#bb282b; stroke:none;" d="M997 347L1002 348L1002 343L997 347z"/>
<path style="fill:#0553ab; stroke:none;" d="M730 344L731 345L730 344M738 344L739 345L738 344M731 345L732 346L731 345M732 346L732 354L733 354L732 346M707 357C703.478 359.281 703.57 363.06 704 367L711 353L712 353C712.568 356.582 713.508 357.943 717 359L715 355L720 350L719 347C713.271 348.021 705.852 350.155 707 357z"/>
<path style="fill:#bb282b; stroke:none;" d="M1019 350L1023 351L1023 347L1019 350z"/>
<path style="fill:#02a0e0; stroke:none;" d="M716 348L717 349L716 348z"/>
<path style="fill:#0553ab; stroke:none;" d="M721 351C720.271 355.654 716.087 360.818 721 364L721 360L722 360C723.099 363.321 724.59 363.737 728 364L728 363L722 352C726.212 354.154 728.111 357.406 729 362C731.861 356.107 726.526 351.853 721 351z"/>
<path style="fill:#02a0e0; stroke:none;" d="M707 352L709 355L707 352M722 352C723.405 357.204 722.787 362.008 729 363C728.721 357.843 727.229 353.609 722 352z"/>
<path style="fill:#0553ab; stroke:none;" d="M738 352L739 353L738 352z"/>
<path style="fill:#bb282b; stroke:none;" d="M1006 352C1004.61 355.645 1005.01 357.3 1009 358L1009 353L1008 352L1006 352z"/>
<path style="fill:#0553ab; stroke:none;" d="M737 354L738 355L737 354M731 355L732 356L731 355M736 356L737 357L736 356z"/>
<path style="fill:#bb282b; stroke:none;" d="M1020 360L1026 358L1020 360z"/>
<path style="fill:#0553ab; stroke:none;" d="M731 358L732 359L731 358M734 358L735 359L734 358M732.667 359.333L733.333 359.667L732.667 359.333z"/>
<path style="fill:#02a0e0; stroke:none;" d="M719 360L720 361L719 360z"/>
<path style="fill:#0553ab; stroke:none;" d="M752 363L752 380L753 380L754 363L752 363M746 364L745 366L746 364z"/>
<path style="fill:#02a0e0; stroke:none;" d="M747 364C741.446 367.766 728.273 364.604 729 373C735.402 374.346 730.381 378.982 729 383L749 385C749 378.763 750.878 369.119 747 364z"/>
<path style="fill:#0553ab; stroke:none;" d="M748 364L749 365L748 364z"/>
<path style="fill:#02a0e0; stroke:none;" d="M753 364L752 385C756.39 384.059 755.135 367.706 753 364z"/>
<path style="fill:#bb282b; stroke:none;" d="M1013 364L1013 365L1017 366L1017 365L1013 364z"/>
<path style="fill:#0553ab; stroke:none;" d="M754 365L754 374L755 374L754 365M692 369C685.046 368.888 684.622 383.127 692 382L694 386L695 386L695 377L696 377L696 385L697 385L696 366L692 369M701 382L733 385L733 384L729 383C730.744 379.587 736.17 372.876 729 373C729.626 366.625 734.675 367.004 740 367C733.7 364.357 710.686 364.504 705.589 369.589C702.872 372.299 702.171 378.401 701 382M742.667 366.333L743.333 366.667L742.667 366.333z"/>
<path style="fill:#bb282b; stroke:none;" d="M1047 366L1049 370L1050 370L1047 366z"/>
<path style="fill:#0553ab; stroke:none;" d="M740 367L741 368L740 367z"/>
<path style="fill:#bb282b; stroke:none;" d="M1012.67 367.333L1013.33 367.667L1012.67 367.333M429 369L430 370L429 369z"/>
<path style="fill:#0553ab; stroke:none;" d="M758 369L758 378L759 378L758 369z"/>
<path style="fill:#02a0e0; stroke:none;" d="M759 369L759 380L760 380L759 369z"/>
<path style="fill:#bb282b; stroke:none;" d="M1031 369C1032.13 371.006 1032.87 371.006 1034 369L1031 369z"/>
<path style="fill:#0553ab; stroke:none;" d="M760 370L760 379L761 379L760 370z"/>
<path style="fill:#bb282b; stroke:none;" d="M1018 372L1019 377L1022 376L1018 372z"/>
<path style="fill:#0553ab; stroke:none;" d="M749 373L749 385L750 385L749 373M754 375L754 381L755 381L754 375z"/>
<path style="fill:#02a0e0; stroke:none;" d="M695 377L695 385L696 385L695 377z"/>
<path style="fill:#bb282b; stroke:none;" d="M1038 381L1041 378L1038 381z"/>
<path style="fill:#0553ab; stroke:none;" d="M757 379L760 381L757 379M755 381L755 384L756 384L755 381z"/>
<path style="fill:#bb282b; stroke:none;" d="M1024 381L1023 386L1028 386L1027 381L1024 381M1050 384L1053 382L1050 384z"/>
<path style="fill:#0553ab; stroke:none;" d="M740 383L740 384L744 384L740 383M752 383L753 384L752 383M734 384L735 385L734 384M745 385L745 386L749 386L745 385M752 385L752 386L755 386L752 385M704 387L711 395C712.2 389.602 709.083 387.568 704 387z"/>
<path style="fill:#bb282b; stroke:none;" d="M417 390L420 388L417 390z"/>
<path style="fill:#0553ab; stroke:none;" d="M718 388L719 396L718 396L713 393C711.765 398.437 713.224 401.93 719 399C719 408.213 716.658 421.034 719.318 429.848C721.412 436.789 729.791 428.372 731 425L730 425L729 429L726 429C725.497 420.516 721.857 400.038 728 394L725 390L725 389L730 389L730 403C734.93 391.251 728.2 388 718 388z"/>
<path style="fill:#02a0e0; stroke:none;" d="M708 389L710 393L711 393L708 389M725 389L725 390L728 394C721.673 398.102 724.887 422.008 726 429L729 429L730 389L725 389z"/>
<path style="fill:#bb282b; stroke:none;" d="M1044 390L1048 393L1047 390L1044 390M378 391L379 392L378 391M1060.67 391.333L1061.33 391.667L1060.67 391.333M1031 393L1029 397L1033 398L1031 393M1048 402L1048 406L1052 406L1048 402M1034 403L1034 409C1037.3 407.672 1037.8 406.435 1037 403L1034 403z"/>
<path style="fill:#0553ab; stroke:none;" d="M731 404L730 424L731 424C731 418.596 728.42 405.48 737 408L737 409L733 408C737.457 414.861 738.879 419.101 736 427L739 428L741 425L741 424L739 412L740 412L741 415L742 415C739.576 409.4 736.62 406.376 731 404z"/>
<path style="fill:#bb282b; stroke:none;" d="M1063 405L1064 406L1063 405z"/>
<path style="fill:#02a0e0; stroke:none;" d="M733 406L737 409L737 408L733 406z"/>
<path style="fill:#bb282b; stroke:none;" d="M407 410L409 412L409 410L407 410z"/>
<path style="fill:#02a0e0; stroke:none;" d="M738 411L739 412L738 411M739 412L739 424L741 424L739 412z"/>
<path style="fill:#0553ab; stroke:none;" d="M764 415L764 416L769 415L764 415z"/>
<path style="fill:#bb282b; stroke:none;" d="M1039 418L1040 419L1045 417C1042.6 413.666 1040.46 414.342 1039 418z"/>
<path style="fill:#0553ab; stroke:none;" d="M680 415L679 421L683 420L680 415z"/>
<path style="fill:#02a0e0; stroke:none;" d="M749 441L760 440C756.836 446.784 749.247 453.799 742 456L738 462L737 466C748.012 466.444 762.54 453.376 765 443L776 449C778.479 439.08 771.259 424.852 769 415C759.913 416.436 753.006 433.394 749 441z"/>
<path style="fill:#bb282b; stroke:none;" d="M1054 415L1054 417L1056 415L1054 415z"/>
<path style="fill:#0553ab; stroke:none;" d="M740 416L740 419L741 419L740 416M769.333 416.667L769.667 417.333L769.333 416.667M761 420L762 421L761 420M770 420L771 421L770 420M682.333 421.667L682.667 422.333L682.333 421.667M741 421L742 422L741 421z"/>
<path style="fill:#bb282b; stroke:none;" d="M1060 421C1058.2 423.854 1058.85 424.976 1062 426L1060 421z"/>
<path style="fill:#0553ab; stroke:none;" d="M684 422L686 429L684 428L684 429L682 438C683.024 451.119 694.53 459.412 706 464L706 465L702 464L701 468L704 466L705 466L707 471L703 469C706.21 476.67 711.243 484.729 719.014 488.539C721.504 489.76 727.516 489.328 724 486L725 489L721 489L723 486L717 487L715 485L715 484L718 481L707 466L727 479L737 466L738 462L744 456L744 455C733.873 454.88 731.026 448.219 731 439C727.112 439.342 720.731 440.229 718.164 443.56C715.237 447.358 715.879 452.27 710.957 454.856C703.206 458.927 689.918 446.347 687 440L698 442C697.105 433.759 690.475 426.71 684 422M760 422L761 423L760 422M759 423L760 424L759 423z"/>
<path style="fill:#bb282b; stroke:none;" d="M1073 423L1073 426L1076 426L1076 423L1073 423z"/>
<path style="fill:#0553ab; stroke:none;" d="M680 424L679 428L682 428L680 424M771 424L772 425L771 424M758 425L759 426L758 425M757 426L758 427L757 426z"/>
<path style="fill:#bb282b; stroke:none;" d="M1047 426L1045 431L1050 429L1047 426z"/>
<path style="fill:#02a0e0; stroke:none;" d="M736 427L735 431L739 428L736 427z"/>
<path style="fill:#0553ab; stroke:none;" d="M772 427L773 428L772 427M735.333 428.667L735.667 429.333L735.333 428.667M756 428L757 429L756 428M738 429L739 430L738 429M734 430L732 435L734 430M737 430L738 431L737 430z"/>
<path style="fill:#bb282b; stroke:none;" d="M398.333 431.667L398.667 432.333L398.333 431.667z"/>
<path style="fill:#0553ab; stroke:none;" d="M679 431L680 432L679 431M722 435L722 436L728 434L726 437L731 435L732 432L722 435z"/>
<path style="fill:#02a0e0; stroke:none;" d="M731 435L734 431L731 435z"/>
<path style="fill:#0553ab; stroke:none;" d="M754 431L755 432L754 431M753 432L754 433L753 432M773 432L774 433L773 432z"/>
<path style="fill:#02a0e0; stroke:none;" d="M721 438L728 434L721 438z"/>
<path style="fill:#0553ab; stroke:none;" d="M752 434L753 435L752 434z"/>
<path style="fill:#bb282b; stroke:none;" d="M1062 435L1064 438L1062 435z"/>
<path style="fill:#0553ab; stroke:none;" d="M705 454L723 439C715.502 431.155 703.649 445.978 705 454M751 436L752 437L751 436M774 436L775 437L774 436z"/>
<path style="fill:#02a0e0; stroke:none;" d="M718 437L719 438L718 437z"/>
<path style="fill:#0553ab; stroke:none;" d="M724 437L725 438L724 437z"/>
<path style="fill:#bb282b; stroke:none;" d="M1049 441L1052 442L1053 437L1049 441z"/>
<path style="fill:#0553ab; stroke:none;" d="M750 438L751 439L750 438z"/>
<path style="fill:#171512; stroke:none;" d="M685 439L684 441L685 439z"/>
<path style="fill:#0553ab; stroke:none;" d="M749 439L750 440L749 439z"/>
<path style="fill:#bb282b; stroke:none;" d="M1074 439L1075 440L1074 439z"/>
<path style="fill:#0553ab; stroke:none;" d="M756.667 440.333L757.333 440.667L756.667 440.333M759 440L760 441L759 440M775 440L776 441L775 440z"/>
<path style="fill:#02a0e0; stroke:none;" d="M713 441L714 442L713 441z"/>
<path style="fill:#0553ab; stroke:none;" d="M749 441L750 442L749 441M754 441L755 442L754 441M759 442L760 443L759 442M758 443L759 444L758 443M765.333 443.667L765.667 444.333L765.333 443.667z"/>
<path style="fill:#bb282b; stroke:none;" d="M394 444L393 446L395 446L394 444z"/>
<path style="fill:#0553ab; stroke:none;" d="M757 444L758 445L757 444M756 445L757 446L756 445M771 445L772 446L771 445M764 446L765 447L764 446M754 447L755 448L754 447M763 447L764 448L763 447M772 447L773 448L772 447M753 448L754 449L753 448M773 448L774 449L773 448M776 448L777 449L776 448z"/>
<path style="fill:#bb282b; stroke:none;" d="M1063 448L1066 453L1067 450L1063 448z"/>
<path style="fill:#0553ab; stroke:none;" d="M752 449L753 450L752 449z"/>
<path style="fill:#bb282b; stroke:none;" d="M1051 450L1051 452L1052 453L1056 449L1051 450z"/>
<path style="fill:#0553ab; stroke:none;" d="M751 450L752 451L751 450M761 450L762 451L761 450M749 451L750 452L749 451M760 451L761 452L760 451M748 452L749 453L748 452z"/>
<path style="fill:#bb282b; stroke:none;" d="M389 454L389 455L392 456L392 453L389 454z"/>
<path style="fill:#0553ab; stroke:none;" d="M744 455L748 453L744 455z"/>
<path style="fill:#02a0e0; stroke:none;" d="M734 454L735 455L734 454z"/>
<path style="fill:#0553ab; stroke:none;" d="M758 454L759 455L758 454M756 455L757 456L756 455M754 457L755 458L754 457z"/>
<path style="fill:#bb282b; stroke:none;" d="M1054 459L1054 460L1058 461L1058 458L1054 459z"/>
<path style="fill:#0553ab; stroke:none;" d="M752 459L753 460L752 459z"/>
<path style="fill:#bb282b; stroke:none;" d="M1067 459L1070 462L1067 459z"/>
<path style="fill:#0553ab; stroke:none;" d="M751 460L752 461L751 460M749 461L750 462L749 461M747 462L748 463L747 462M743 464L743 465L747 464L743 464z"/>
<path style="fill:#171512; stroke:none;" d="M706 465L707 466L706 465z"/>
<path style="fill:#0553ab; stroke:none;" d="M742 465L743 466L742 465z"/>
<path style="fill:#bb282b; stroke:none;" d="M388 466L388 468L390 468L388 466z"/>
<path style="fill:#02a0e0; stroke:none;" d="M704 466L702 469L707 471L704 466z"/>
<path style="fill:#0553ab; stroke:none;" d="M741 466L742 467L741 466z"/>
<path style="fill:#bb282b; stroke:none;" d="M1058 468L1058 473L1061 473L1061 468L1058 468M1070 468L1069 472L1073 472L1072 468L1070 468z"/>
<path style="fill:#02a0e0; stroke:none;" d="M709 473L708 477L712 477L712 473L709 473z"/>
<path style="fill:#bb282b; stroke:none;" d="M385.333 477.667L385.667 478.333L385.333 477.667z"/>
<path style="fill:#02a0e0; stroke:none;" d="M712 478L710 479L714 482L714 478L712 478M717 482L715 484L715 485L717 487L721 485L717 482z"/>
<path style="fill:#0553ab; stroke:none;" d="M719 482L720 483L719 482M720 483L721 484L720 483z"/>
<path style="fill:#bb282b; stroke:none;" d="M1061 483L1061 487L1065 486L1064 483L1061 483M1076 485L1077 486L1076 485z"/>
<path style="fill:#02a0e0; stroke:none;" d="M721 489L725 489L724 486L721 489z"/>
<path style="fill:#bb282b; stroke:none;" d="M382 488L382 491L384 491L384 488L382 488M1063 494L1066 497L1065 494L1063 494M380 500L381 503L382 503L383 500L380 500M1063 506L1063 508L1067 509L1068 506L1063 506M368 509L367 511L369 511L368 509M379 511L381 515L379 511M1065 523L1067 523L1067 517L1065 523M1078 518L1077 519L1077 520L1077 521L1080 518L1078 518M368 521L368 524L370 523L370 522L368 521M378 525L377 529L381 528L381 526L380 525L378 525M1066 530L1066 534L1070 534L1069 530L1066 530M341.333 531.667L341.667 532.333L341.333 531.667M1082 531L1085 534L1082 531M367 535L367 537L369 537L369 535L367 535M376 538L377 541L379 541L380 540L380 538L379 537L376 538M329 538L330 539L329 538M354 538L354 540L356 540L356 538L354 538M1067 541L1066 545L1069 541L1067 541M1080 541L1079 542L1079 544L1083 545L1082 541L1080 541M341.333 543.667L341.667 544.333L341.333 543.667M368 545L368 547L370 547L368 545M485 547L485 548L488 548L485 547z"/>
<path style="fill:#e05457; stroke:none;" d="M478 605C462.485 608.12 463.177 621.447 476 628.175C496.243 638.797 526.939 619.875 515 596C509.916 585.832 498.54 581.923 489 577.218C485.763 575.622 479.498 572.632 480.613 568.043C483.462 556.314 497.823 567.029 501 572C515.348 568.628 515.28 557.503 503 550.533C485.715 540.723 456.484 555.072 464.109 577C468.451 589.488 481.647 592.677 491.996 598.324C496.092 600.559 501.181 604.72 498.639 609.956C493.516 620.506 480.698 612.931 478 605z"/>
<path style="fill:#bb282b; stroke:none;" d="M491 547L491 548L495 548L491 547M746 547L746 548L752 548L746 547z"/>
<path style="fill:#e05457; stroke:none;" d="M739 605C726.221 608.037 722.964 618.387 734.004 626.362C740.759 631.242 749.968 632.048 758 630.532C772.854 627.73 782.657 609.986 775.85 595.985C772.398 588.885 765.74 585.018 759 581.486C754.319 579.033 741.251 575.817 741.346 569.012C741.551 554.229 761.024 570.682 764.104 570.627C768.536 570.549 775.432 565.937 773.613 560.985C764.842 537.113 720.238 547.185 724.584 573.286C726.702 586.006 738.279 591.842 749 596.576C753.48 598.554 761.924 602.571 760.427 608.826C757.503 621.049 741.26 613.027 739 605z"/>
<path style="fill:#bb282b; stroke:none;" d="M753 547L753 548L756 548L753 547z"/>
<path style="fill:#e05457; stroke:none;" d="M929 547L929 608L930.028 630.397L945 632C945 618.979 941.216 601.699 953 593L961.997 620L967.278 630.972L984 632C983.305 618.597 974.165 603.412 969.2 591C967.554 586.886 963.524 580.659 963.9 576.17C964.676 566.886 979.352 555.157 984 547L967.039 548.179L945 575L945 547L929 547z"/>
<path style="fill:#bb282b; stroke:none;" d="M967 547L968 548L967 547M378 548L380 552L378 548M481.667 548.333L482.333 548.667L481.667 548.333M498 548L499 549L498 548z"/>
<path style="fill:#e05457; stroke:none;" d="M539 548L539 630L555 630C554.179 623.506 550.161 600.136 556.318 596.028C560.926 592.953 569.711 595.591 575 595L576 630L591 630L591 548L576 548L576 581C570.815 581 560.754 582.932 556.318 579.972C550.634 576.179 554 554.364 554 548L539 548z"/>
<path style="fill:#bb282b; stroke:none;" d="M554 548L554 580L555 580L554 548z"/>
<path style="fill:#e05457; stroke:none;" d="M618 548L618 630L634 630L633 601L633 548L618 548z"/>
<path style="fill:#bb282b; stroke:none;" d="M659 548L660 549L659 548z"/>
<path style="fill:#e05457; stroke:none;" d="M659 549C664.484 573.92 660 604.46 660 630L675 630L675 608C682.987 608 693.084 609.322 699.96 604.347C711.245 596.182 711.979 565.073 702.786 555.094C694.133 545.7 670.544 545.588 659 549z"/>
<path style="fill:#bb282b; stroke:none;" d="M687 548L687 549L691 549L687 548M742 548L742 549L745 549L742 548M758.667 548.333L759.333 548.667L758.667 548.333z"/>
<path style="fill:#e05457; stroke:none;" d="M800 548L800 630L815 630L815 548L800 548z"/>
<path style="fill:#bb282b; stroke:none;" d="M815 548L815 630L816 630L816 573L815 548M833.434 549.028L831 560L831 588L831.155 617.83L833.027 628.397L851 630L894 630L910.566 628.972L913 618L913.71 589L913 561L911.972 549.742L894 548L850 548L833.434 549.028M945 548L945 563L946 563L945 548M965 548L966 549L965 548M983 548L984 549L983 548M478 549L479 550L478 549M575 549L575 557L576 557L575 549M591 549L591 630L592 630L592 574L591 549M617 549L617 595L618 595C618 581.997 622.01 560.939 617 549M633 549L633 629L634 629L634 574L633 549M694 549L695 550L694 549M739 549L740 550L739 549M762 549L763 550L762 549M964 549L965 550L964 549M982 549L983 550L982 549M476 550L477 551L476 550M659 550L659 556L660 556L659 550M737 550L738 551L737 550M799 550L800 551L799 550M972 550L970 556L971 556L972 553L975 555L974 550L972 550M979 550L980 551L979 550M474 551L475 552L474 551M504 551L505 552L504 551M580 551C580.388 569.786 581 588.271 581 607C581 611.969 578.539 624.14 586 623L585 566L586 566L587 568L588 565L585 558L586 558L588 561L588 551L587 551L584 557C584.901 553.134 583.833 551.836 580 551M698 551L699 552L698 551M735 551L736 552L735 551M472 552L473 553L472 552M545 552L545 553L548 554L545 552M626 552L624 603L625 624L627 624C633.425 602.264 626.355 574.591 628 552L626 552M733 552L734 553L733 552z"/>
<path style="fill:#171512; stroke:none;" d="M838.318 552.742C834.565 554.656 835.042 564.405 835.45 568.039C836.959 581.499 836 595.458 836 609C836 612.871 834.456 621.078 837.028 624.258C839.796 627.68 849.089 626 853 626L891 626C895.477 626 902.597 627.341 906.718 625.397C911.226 623.269 908.981 613.076 909.001 609C909.065 595.679 909 582.379 909 569C909 564.947 910.491 556.975 907.821 553.603C905.197 550.29 895.777 552 892 552L854 552C849.537 552 842.391 550.666 838.318 552.742z"/>
<path style="fill:#bb282b; stroke:none;" d="M937 552L936 596L937 596L937 573L938 573L938 592L939 592C939 581.572 942.945 560.702 937 552M962 552L963 553L962 552z"/>
<path style="fill:#171512; stroke:none;" d="M970 552L938 595L938 573L937 573L937 618L938 618C938 603.588 940.688 586.825 955 579L966.797 612L974 625L961.05 591L956.64 577L972 552L970 552z"/>
<path style="fill:#e05457; stroke:none;" d="M973 552L974 553L973 552z"/>
<path style="fill:#bb282b; stroke:none;" d="M485 553L485 554L491 554L485 553M701 553L702 554L701 553M747 553L747 554L753 554L747 553M807 553L806 599L807 625L809 625L809 589L808 589L808 623L807 623L807 556L808 556L808 588L809 588C809 578.981 812.506 560.268 807 553M961 553L962 554L961 553M969 553L970 554L969 553M979 553L980 554L979 553M368 554L367 555L371 557L368 554M469 554L470 555L469 554M482 554L483 555L482 554z"/>
<path style="fill:#171512; stroke:none;" d="M473 614C481.295 631.63 511.92 624.51 508.785 604C506.205 587.114 483.022 587.986 474.703 575.961C468.657 567.222 477.664 556.656 487 555.968C494.001 555.453 499 560.477 505 563C496.904 548.202 467.334 552.854 470.863 572C473.696 587.375 496.246 587.522 504.347 599.015C510.923 608.343 503.028 621.745 492 622.093C484.248 622.338 479.498 616.972 473 614z"/>
<path style="fill:#bb282b; stroke:none;" d="M493 554L494 555L493 554M545 554L547 556L545 554M667 556L687 555C682.604 553.155 670.286 552.24 667 556M702 554L703 555L702 554M730 554L731 555L730 554M743.667 554.333L744.333 554.667L743.667 554.333z"/>
<path style="fill:#171512; stroke:none;" d="M735 615C743.114 631.991 771.285 623.754 769.88 605C768.478 586.278 741.516 588.391 734.461 573.999C726.965 558.709 750.555 554.226 760 559C750.049 547.432 726.651 558.594 732.265 574C737.307 587.838 757.307 587.609 765.347 599.015C771.744 608.089 764.854 621.556 754 622.362C746.77 622.899 741.064 618.003 735 615z"/>
<path style="fill:#bb282b; stroke:none;" d="M754.667 554.333L755.333 554.667L754.667 554.333z"/>
<path style="fill:#171512; stroke:none;" d="M937 554L937 567L938 567L937 554z"/>
<path style="fill:#bb282b; stroke:none;" d="M968 554L969 555L968 554M1067 555L1070 558L1071 554L1067 555M468 555L469 556L468 555M486.667 555.333L487.333 555.667L486.667 555.333M496 555L497 556L496 555z"/>
<path style="fill:#171512; stroke:none;" d="M545 555L545 623L547 623L547 590L583 590L583 587L547 587C547 578.565 550.168 561.822 545 555z"/>
<path style="fill:#bb282b; stroke:none;" d="M550 555L551 556L550 555z"/>
<path style="fill:#171512; stroke:none;" d="M668 623L669 623L669 602C677.338 602 687.538 603.567 694.906 598.775C704.16 592.757 703.727 566.806 696.721 559.133C692.79 554.828 672.213 551.319 668.028 556.603C665.954 559.221 667 564.878 667 568L667 596C667 604.607 665.552 614.72 668 623z"/>
<path style="fill:#bb282b; stroke:none;" d="M691 555L692 556L691 555M703 555L704 556L703 555M729 555L730 556L729 555M741 555L742 556L741 555M747 555L747 556L752 556L747 555M756.667 555.333L757.333 555.667L756.667 555.333M967 555L968 556L967 555M467 556L468 557L467 556M478 556L479 557L478 556M483 556L483 557L486 557L483 556M491.667 556.333L492.333 556.667L491.667 556.333M498 556L499 557L498 556M544 556L545 557L544 556M669 556L669 557L686 557L669 556M728 556L729 557L728 556M744 556L744 557L747 557L744 556M752 556L752 557L756 557L752 556M758 556L763 562L763 558L758 556z"/>
<path style="fill:#171512; stroke:none;" d="M807 556L807 623L808 623L808 577L807 556z"/>
<path style="fill:#bb282b; stroke:none;" d="M959 556L960 557L959 556M481.667 557.333L482.333 557.667L481.667 557.333M495 557L496 558L495 557M499.667 557.333L500.333 557.667L499.667 557.333M552 557L553 558L552 557M659 557L659 560L660 560L659 557M666.333 557.667L666.667 558.333L666.333 557.667z"/>
<path style="fill:#e05457; stroke:none;" d="M669 557L669 587C669 590.122 667.954 595.779 670.028 598.397C674.404 603.922 691.855 599.081 695.682 594.786C700.666 589.193 700.574 563.231 693.891 559.14C687.27 555.086 676.427 557 669 557z"/>
<path style="fill:#bb282b; stroke:none;" d="M689.667 557.333L690.333 557.667L689.667 557.333M695 557L696 558L695 557M727 557L728 558L727 557M738 557L739 558L738 557M742.667 557.333L743.333 557.667L742.667 557.333M756.667 557.333L757.333 557.667L756.667 557.333M771 557L772 558L771 557M958 557L959 558L958 557M966 557L967 558L966 557M969 557L970 558L969 557M976 557L977 558L976 557M475 558L476 559L475 558M479 558L480 559L479 558M497 558L498 559L497 558M501 558L502 559L501 558M511 558L512 559L511 558M693 558L694 559L693 558M696 558L697 559L696 558M705 558L706 559L705 558M741 558L742 559L741 558M758 558L759 559L758 558M772 558L773 559L772 558M965 558L966 559L965 558M968 558L969 559L968 558M465 559L466 560L465 559M474 559L475 560L474 559M478 559L479 560L478 559M498 559L499 560L498 559M502 559L503 560L502 559M697 559L698 560L697 559M726 559L727 560L726 559M739 559L740 560L739 559z"/>
<path style="fill:#171512; stroke:none;" d="M761 559L765 562L761 559z"/>
<path style="fill:#bb282b; stroke:none;" d="M377 561L377 563L381 564L381 560L377 561M473 560L474 561L473 560M500 560L501 561L500 560M512 560L513 561L512 560M575.333 560.667L575.667 561.333L575.333 560.667M666 560L667 561L666 560M682 560L683 561L682 560M698 560L699 561L698 560M706 560L707 561L706 560M765 560L764 563L768 564L765 560M773 560L774 561L773 560M956 560L957 561L956 560M964 560L965 561L964 560M472 561L473 562L472 561M475 561L476 562L475 561M501 561L502 562L501 561M659 561L659 630L660 630L660 583L659 561M676.667 561.333L677.333 561.667L676.667 561.333M725.333 561.667L725.667 562.333L725.333 561.667M955 561L956 562L955 561M963 561L964 562L963 561M973 561L974 562L973 561M502 562L503 563L502 562M503 563L503 564L507 565L506 562L503 563M586 562L586 564L588 564L588 562L586 562M697 562L698 563L697 562M699.333 562.667L699.667 563.333L699.333 562.667M965 562L966 563L965 562M471 563L472 564L471 563M484.667 563.333L485.333 563.667L484.667 563.333M491.667 563.333L492.333 563.667L491.667 563.333M575.333 563.667L575.667 564.333L575.333 563.667M707 563L707 567L708 567L707 563M732 563L733 564L732 563M745.667 563.333L746.333 563.667L745.667 563.333M752 563L753 564L752 563M463.333 564.667L463.667 565.333L463.333 564.667M473 564L474 565L473 564M482 564L483 565L482 564M494 564L495 565L494 564M675 564L676 565L675 564z"/>
<path style="fill:#171512; stroke:none;" d="M676 593C680.147 592.23 685.462 592.507 688.772 589.566C693.395 585.459 694.004 571.086 689.347 566.728C686.643 564.196 677.679 562.101 675.603 566.318C673.732 570.122 675 576.846 675 581C675 585.118 675.043 588.981 676 593z"/>
<path style="fill:#bb282b; stroke:none;" d="M684 564L684 565L687 565L684 564M724 564L724 568L725 568L724 564M734 564L735 565L734 564M743 564L744 565L743 564M755 564L756 565L755 564M768 564L769 565L768 564M774 564L775 565L774 564M953 564L954 565L953 564M961 564L962 565L961 564M470 565L470 568L471 568L470 565M481 565L482 566L481 565M504 565L505 566L504 565M688 565L689 566L688 565M731.333 565.667L731.667 566.333L731.333 565.667M742 565L743 566L742 565M952 565L953 566L952 565M960 565L961 566L960 565M970 565L971 566L970 565M480 566L481 567L480 566M497 566L498 567L497 566M511 566L512 567L511 566M700 566L700 569L701 569L700 566M741 566L742 567L741 566M758 566L759 567L758 566M762 566L763 567L762 566M772 566L773 567L772 566M959 566L960 567L959 566M962 566L963 567L962 566M1067 567L1067 568L1070 569L1070 566L1067 567M472 567L472 572L473 572L472 567M690 567L691 568L690 567M733 567L734 568L733 567M759 567L760 568L759 567M366.333 568.667L366.667 569.333L366.333 568.667M479.333 568.667L479.667 569.333L479.333 568.667M508 568L509 569L508 568M544.333 568.667L544.667 569.333L544.333 568.667M691.333 568.667L691.667 569.333L691.333 568.667M698 568L698 584L699 584L698 568M740 568L740 571L741 571L740 568M769 568L770 569L769 568z"/>
<path style="fill:#171512; stroke:none;" d="M937 568L937 572L938 572L937 568z"/>
<path style="fill:#bb282b; stroke:none;" d="M961 568L962 569L961 568M499 569L500 570L499 569M949 569L950 570L949 569M957 569L958 570L957 569M960 569L961 570L960 569M967 569L968 570L967 569M470 570L470 574L471 574L470 570M500 570L501 571L500 570M505 570L506 571L505 570M766 570L767 571L766 570M378 571L378 575L381 575L381 571L378 571M480 571L481 572L480 571M724 571L725 572L724 571M731.333 571.667L731.667 572.333L731.333 571.667M733.333 571.667L733.667 572.333L733.333 571.667M741 571L742 572L741 571M762 571L762 572L765 572L762 571M877 571C873.619 579.716 869.648 597.68 861 602L852.395 589.911L859 576C845.73 582.848 844.71 592.59 856.985 600.834C859.222 602.336 863.007 606.521 865.895 606.079C868.883 605.622 869.57 601.279 870.46 599C873.452 591.333 877.728 583.887 880 576L883 576L891.883 589.896L884 601C889.879 601.831 898.743 593.344 896.508 587.001C894.127 580.246 883.587 572.907 877 571M666 572L666 597L667 597L666 572M692 572L692 585L693 585L692 572M947 572L948 573L947 572M965 572L966 573L965 572M352 573L352 575L354 575L354 573L352 573M482 573L483 574L482 573M724 573L724 576L725 576L724 573M945 573L945 575L947 573L945 573M954 573L955 574L954 573M957 573L958 574L957 573M473 574L474 575L473 574M483 574L484 575L483 574M734 574L735 575L734 574M744 574L745 575L744 574M963 574L964 575L963 574M463 575L464 576L463 575M471 575L472 576L471 575M485 575L486 576L485 575M732 575L733 576L732 575M474 576L475 577L474 576M708 576L709 577L708 576M735 576L736 577L735 576M747 576L748 577L747 576M472 577L473 578L472 577M475 577L476 578L475 577M489 577L490 578L489 577M725 577L726 578L725 577M733 577L734 578L733 577M736 577L737 578L736 577M750 577L751 578L750 577M951 577L952 578L951 577M963 577L964 578L963 577M1066 577L1068 580L1069 579L1068 577L1066 577M464 578L465 579L464 578M473 578L474 579L473 578M476 578L477 579L476 578M491 578L492 579L491 578M734 578L735 579L734 578M737 578L738 579L737 578M752 578L753 579L752 578M474 579L475 580L474 579M477 579L478 580L477 579M708.333 579.667L708.667 580.333L708.333 579.667M735 579L736 580L735 579M738 579L739 580L738 579M754 579L755 580L754 579M952 579L953 580L952 579M954 579L955 580L954 579M956 579L957 580L956 579M964 579L965 580L964 579M366 580L366 582L368 582L366 580M465 580L466 581L465 580M475 580L476 581L475 580M491 580L492 581L491 580M495 580L496 581L495 580M555 580L556 581L555 580M575 580L576 581L575 580M736 580L737 581L736 580M739 580L740 581L739 580M949 580L950 581L949 580M476 581L477 582L476 581M480 581L481 582L480 581M494 581L495 582L494 581M727 581L728 582L727 581M737 581L738 582L737 581M741 581L742 582L741 581M948 581L949 582L948 581M957 581L958 582L957 581M965 581L966 582L965 581M478 582L479 583L478 582M481.667 582.333L482.333 582.667L481.667 582.333M739 582L740 583L739 582M743 582L744 583L743 582M760 582L761 583L760 582M947 582L948 583L947 582M950 582L951 583L950 582M955.333 582.667L955.667 583.333L955.333 582.667M341 583L342 584L341 583M378 583L378 587L381 587L381 583L378 583M467 583L468 584L467 583M479 583L480 584L479 583M484 583L485 584L484 583M501 583L502 584L501 583M547 583L547 586L548 586L547 583M745 583L746 584L745 583M762 583L763 584L762 583M468 584L469 585L468 584M481 584L482 585L481 584M486 584L487 585L486 584M503 584L504 585L503 584M587.333 584.667L587.667 585.333L587.333 584.667M729 584L730 585L729 584M742 584L743 585L742 584M747 584L748 585L747 584M764 584L765 585L764 584M946 584L947 585L946 584M958 584L959 585L958 584M966 584L967 585L966 584M469 585L470 586L469 585M483 585L484 586L483 585M488 585L489 586L488 585M569 585L570 586L569 585M730 585L731 586L730 585M744 585L745 586L744 585M749 585L750 586L749 585M766 585L767 586L766 585M945 585L946 586L945 585M948 585L949 586L948 585M956 585L957 586L956 585M470 586L471 587L470 586M485 586L486 587L485 586M490 586L491 587L490 586M506 586L507 587L506 586M691 586L692 587L691 586M698 586L698 591L699 591L698 586M731 586L732 587L731 586M751 586L752 587L751 586M767 586L768 587L767 586M947 586L948 587L947 586M959 586L960 587L959 586M967 586L968 587L967 586M471 587L472 588L471 587M492 587L493 588L492 587M556 587L556 588L574 588L556 587M753 587L754 588L753 587M766 587L767 588L766 587M946 587L947 588L946 587M1065 587L1068 589L1065 587M489 588L490 589L489 588M494 588L495 589L494 588M690 588L691 589L690 588M750 588L751 589L750 588M770 588L771 589L770 588M957 588L958 589L957 588M474 589L475 590L474 589M491 589L492 590L491 589M496 589L497 590L496 589M689 589L690 590L689 589M700 589L700 592L701 592L700 589M707 589L707 594L708 594L707 589M735 589L736 590L735 589M752 589L753 590L752 589M757 589L758 590L757 589M942 589L943 590L942 589M945 589L946 590L945 589M960 589L961 590L960 589M968 589L969 590L968 589M493 590L494 591L493 590M498 590L499 591L498 590M688 590L689 591L688 590M759 590L760 591L759 590M958 590L959 591L958 590M477 591L478 592L477 591M675.333 591.667L675.667 592.333L675.333 591.667M686 591L687 592L686 591M738 591L739 592L738 591M756 591L757 592L756 591M760 591L761 592L760 591M941 591L942 592L941 591M969 591L970 592L969 591M369 592L369 596L370 596L369 592M479 592L480 593L479 592M497 592L498 593L497 592M501 592L502 593L501 592M678 592L678 593L682 593L678 592M740 592L741 593L740 592M758 592L759 593L758 592M961 592L962 593L961 592M380 593L379 596L380 597L383 596L383 594L380 593M481 593L482 594L481 593M490 593L491 594L490 593M502 593L503 594L502 593M513 593L514 594L513 593M742 593L743 594L742 593M763 593L764 594L763 593M774 593L775 594L774 593M942 593L943 594L942 593M951.667 593.333L952.333 593.667L951.667 593.333M959 593L960 594L959 593M483 594L484 595L483 594M500 594L501 595L500 594M503 594L504 595L503 594M514 594L515 595L514 594M696 594L697 595L696 594M699 594L700 595L699 594M744 594L745 595L744 594M761 594L762 595L761 594M938 594L939 595L938 594M941 594L942 595L941 594M953.333 594.667L953.667 595.333L953.333 594.667M970 594L971 595L970 594M485 595L486 596L485 595M504 595L505 596L504 595M555 595L555 596L572 596L555 595M573.667 595.333L574.333 595.667L573.667 595.333M668 595L669 596L668 595M695 595L696 596L695 595M698 595L699 596L698 595M746 595L747 596L746 595M762 595L763 596L762 595M765 595L766 596L765 595M488 596L489 597L488 596M505 596L506 597L505 596M515 596L516 597L515 596M554 596L554 627L555 627L554 596M575 596L575 630L576 630L575 596M694 596L695 597L694 596M763 596L764 597L763 596M766 596L767 597L766 596M776.333 596.667L776.667 597.333L776.333 596.667M948 596L949 597L948 596M960 596L961 597L960 596M971 596L972 597L971 596M490 597L491 598L490 597M506 597L507 598L506 597M617 597L617 601L618 601L617 597M668.333 597.667L668.667 598.333L668.333 597.667M692 597L693 598L692 597M751 597L752 598L751 597M767 597L768 598L767 597M936 597L936 600L937 600L936 597M954.333 597.667L954.667 598.333L954.333 597.667M963 597L964 598L963 597M358.333 598.667L358.667 599.333L358.333 598.667M492 598L493 599L492 598M690.667 598.333L691.333 598.667L690.667 598.333M695 598L696 599L695 598M705 598L706 599L705 598M753 598L754 599L753 598M765 598L766 599L765 598M961 598L962 599L961 598M494 599L495 600L494 599M507 599L508 600L507 599M516 599L517 600L516 599M550 599L551 600L550 599M666 599L667 600L666 599M669 599L670 600L669 599M686.667 599.333L687.333 599.667L686.667 599.333M694 599L695 600L694 599M704 599L705 600L704 599M755 599L756 600L755 599M768 599L769 600L768 599M777 599L778 600L777 599M938 599L938 618L937 618L937 608L936 608L936 625L939 625L938 599M946 599L947 600L946 599M972 599L973 600L972 599M495 600L496 601L495 600M691.667 600.333L692.333 600.667L691.667 600.333M769.333 600.667L769.667 601.333L769.333 600.667M955 600L956 601L955 600M964 600L965 601L964 600M1064 600L1064 602L1066 600L1064 600M497 601L498 602L497 601M508 601L509 602L508 601M688.667 601.333L689.333 601.667L688.667 601.333M777 601L778 602L777 601M800 601L801 602L800 601M945 601L945 631L946 631L945 601M962 601L963 602L962 601M973 601L974 602L973 601M702 602L703 603L702 602M767.333 602.667L767.667 603.333L767.333 602.667M498 603L499 604L498 603M701 603L702 604L701 603M956.333 603.667L956.667 604.333L956.333 603.667M963 603L964 604L963 603M509 604L509 608L510 608L509 604M666.333 604.667L666.667 605.333L666.333 604.667M760 604L760 611L761 611L760 604M770 604L770 608L771 608L770 604M474 605L475 606L474 605M499 605L499 610L500 610L499 605M516 605L517 606L516 605M673.333 605.667L673.667 606.333L673.333 605.667M698 605L699 606L698 605M767 605L768 606L767 605M966 605L967 606L966 605M371 606L370 609L371 606M383 606L382 610L386 609L383 606M478.333 606.667L478.667 607.333L478.333 606.667M696 606L697 607L696 606M734 606L735 607L734 606M739 606L739 609L740 609L739 606M957.333 606.667L957.667 607.333L957.333 606.667M471 607L472 608L471 607M691 607L691 608L694 608L691 607M800.333 607.667L800.667 608.333L800.333 607.667M967 607L968 608L967 607M470 608L471 609L470 608M675 608L676 609L675 608M965 608L966 609L965 608M469 609L470 610L469 609M479 609L480 610L479 609M506.333 609.667L506.667 610.333L506.333 609.667M516 609L516 612L517 612L516 609M730 609L731 610L730 609M740 609L741 610L740 609M767.333 609.667L767.667 610.333L767.333 609.667M777 609L777 612L778 612L777 609M976 609L977 610L976 609M729 610L730 611L729 610M769 610L769 613L770 613L769 610M958 610L959 611L958 610M968 610L969 611L968 610M508.333 611.667L508.667 612.333L508.333 611.667M742 611L743 612L742 611M977 611L978 612L977 611M1062 611L1061 612L1064 614L1062 611M473 612L472 615L473 612M497 612L498 613L497 612M734 612L735 616L734 612M743 612L744 613L743 612M758 612L759 613L758 612M969 612L970 613L969 612M359 613L361 615L361 613L359 613M483 613L484 614L483 613M496 613L497 614L496 613M505 613L506 614L505 613M745 613L746 614L745 613M757 613L758 614L757 613M766 613L767 614L766 613M776.333 613.667L776.667 614.333L776.333 613.667M959 613L960 614L959 613M967 613L968 614L967 613M494 614L495 615L494 614M507 614L508 615L507 614M515.333 614.667L515.667 615.333L515.333 614.667M747 614L748 615L747 614M755 614L756 615L755 614M768 614L769 615L768 614M978 614L979 615L978 614M490.667 615.333L491.333 615.667L490.667 615.333M725 615L726 616L725 615M736 615L737 616L736 615M752 615L753 616L752 615M765 615L766 616L765 615M960 615L961 616L960 615M473 616L474 617L473 616M503 616L504 617L503 616M506 616L507 617L506 616M617 616L618 617L617 616M764 616L765 617L764 616M767 616L768 617L767 616M775.333 616.667L775.667 617.333L775.333 616.667M465 617L466 618L465 617M474 617L475 618L474 617M505 617L506 618L505 617M514 617L515 618L514 617M726 617L727 618L726 617M763.333 617.667L763.667 618.333L763.333 617.667M766 617L767 618L766 617M971 617L972 618L971 617M979 617L980 618L979 617M1072 617L1073 618L1072 617M345 618L345 620L347 620L347 618L345 618M372 618L374 621L374 618L372 618M384 618L384 621L388 621L388 618L384 618M475 618L476 619L475 618M479 618L480 619L479 618M504 618L505 619L504 618M547 618L545 623L545 624C548.331 623.286 548.591 620.762 547 618z"/>
<path style="fill:#171512; stroke:none;" d="M626 618L626 621L627 621L626 618z"/>
<path style="fill:#bb282b; stroke:none;" d="M740 618L741 619L740 618M765 618L766 619L765 618M961 618L962 619L961 618M466 619L467 620L466 619M476 619L477 620L476 619M481 619L482 620L481 619M500 619L501 620L500 619M503 619L504 620L503 619M513 619L514 620L513 619M727 619L728 620L727 619M737 619L738 620L737 619M742 619L743 620L742 619M761 619L760 621L762 621L761 619M764 619L765 620L764 619M774 619L775 620L774 619z"/>
<path style="fill:#171512; stroke:none;" d="M937 619L937 623L938 623L937 619z"/>
<path style="fill:#bb282b; stroke:none;" d="M972 619L973 620L972 619M477 620L478 621L477 620M483 620L484 621L483 620M502 620L503 621L502 620M669 620L669 623L670 623L669 620M744 620L745 621L744 620M763 620L764 621L763 620M479 621L480 622L479 621M486 621L487 622L486 621M496 621L497 622L496 621M501 621L502 622L501 621M617 621L617 624L618 624L617 621M740 621L741 622L740 621M757.667 621.333L758.333 621.667L757.667 621.333M762 621L763 622L762 621M962 621L963 622L962 621M468 622L469 623L468 622M481 622L482 623L481 622M491.667 622.333L492.333 622.667L491.667 622.333M499 622L500 623L499 622M511 622L512 623L511 622M667 622L667 624L669 624L667 622M729 622L730 623L729 622M751 622L751 623L755 623L751 622M760.667 622.333L761.333 622.667L760.667 622.333M772 622L773 623L772 622M973 622L974 623L973 622M981 622L982 623L981 622M469 623L470 624L469 623M484 623L485 624L484 623M496.667 623.333L497.333 623.667L496.667 623.333M730 623L731 624L730 623M745 623L746 624L745 623M757.667 623.333L758.333 623.667L757.667 623.333M771 623L772 624L771 623M470 624L471 625L470 624M489 624L489 625L493 625L489 624M731 624L732 625L731 624M750 624L750 625L753 625L750 624M770 624L771 625L770 624M963 624L964 625L963 624M982 624L983 625L982 624M471 625L472 626L471 625M508 625L509 626L508 625M732 625L733 626L732 625M769 625L770 626L769 625M973.667 625.333L974.333 625.667L973.667 625.333M675.333 626.667L675.667 627.333L675.333 626.667M768 626L769 627L768 626M474 627L475 628L474 627M505 627L506 628L505 627M735 627L736 628L735 627M766 627L767 628L766 627M964 627L965 628L964 627M363 628L365 630L365 628L363 628M476 628L477 629L476 628M503 628L504 629L503 628M737 628L738 629L737 628M764 628L765 629L764 628M385 630L389 633L389 629L385 630M478 629L479 630L478 629M501 629L502 630L501 629M739 629L740 630L739 629M762 629L763 630L762 629M481 630L482 631L481 630M497.667 630.333L498.333 630.667L497.667 630.333M545 630L546 631L545 630M547 630L547 631L550 631L547 630M579 630L579 631L587 631L579 630M621 630L621 631L632 631L621 630M742 630L743 631L742 630M758.667 630.333L759.333 630.667L758.667 630.333M965 630L966 631L965 630M984.333 630.667L984.667 631.333L984.333 630.667M486 631L486 632L495 632L486 631M747 631L747 632L756 632L747 631M929 631L930 632L929 631M1070 633L1073 631L1070 633M1057 634L1057 636L1059 636L1059 634L1057 634M390 641L389 644L392 644L390 641M377 642L378 645L379 645L380 642L377 642M1053 651L1056 649C1053.6 648.425 1053.51 648.525 1053 651M394 653L394 654L398 654L394 653M366 653L366 656L368 653L366 653M1049 658L1050 661L1051 661L1052 658L1049 658M1063 662L1062 664L1064 664L1063 662M400 665L400 666L404 664L400 665M387 666L387 668L390 668L390 666L387 666M1046 670L1046 673L1048 673L1048 670L1046 670M403 673L406 676L403 673M362 674L363 675L362 674M374 677L375 678L374 677M1042 682L1042 685L1044 682L1042 682M405 684L405 688L409 684L405 684M1064 686L1065 687L1064 686M378 687L378 689L380 689L380 687L378 687M394 689L394 691L396 691L396 689L394 689M1038 691L1037 693L1039 693L1038 691M366 696L367 697L366 696M410 696L410 697L413 697L410 696M413 705L413 707L418 707L418 705L413 705M1040 711L1041 712L1040 711M1027 712L1027 714L1029 714L1029 712L1027 712M421 714L421 718L424 717L424 715L423 714L421 714M604 752C612.515 749.352 623.534 731.924 618.821 723.044C616.169 718.048 606.594 714.963 603.407 721.228C601.525 724.929 602.914 731.907 603.015 736C603.147 741.405 604.127 746.557 604 752M831 752L834 748L841 752L842 749C833.629 742.431 829.915 727.201 841 721L837 741C842.091 737.786 851.04 717.615 838.985 717.948C825.099 718.331 831.293 743.869 831 752M408 718L410 720L408 718M630 752L633 747L641 751C639.903 748.888 637.218 746.42 637.187 743.961C637.093 736.634 646.686 730.484 643.393 722.059C640.754 715.308 632.209 719.107 630.009 724.093C626.427 732.212 630.185 743.456 630 752M716 727C721.785 729.108 725.342 738.626 718 741L718 742L726 753C725.58 743.223 724.578 732.521 722.181 723.019C719.897 713.967 716.046 721.898 716 727M776 743C773.681 743.781 770.637 747.84 768.275 747.37C763.791 746.476 766 725.846 766 722L773 723C770.174 717.826 762.707 716.809 762.059 724.015C761.449 730.793 760.725 741.579 763.265 747.941C766.776 756.738 774.462 748.164 776 743M678 727L677 721L676 721C676 727.095 671.565 752.289 680 751C679.323 741.905 690.141 736.591 691.275 727C691.823 722.371 687.929 717.965 683.609 721.552C681.576 723.239 680.139 725.388 678 727M748 719L749 742L738 723C737.508 730.129 744.007 752.309 753 751L750 719L748 719M784 719L786 753L790 754C789.695 746.884 790.917 721.296 784 719z"/>
<path style="fill:#171512; stroke:none;" d="M607 745C613.15 742.063 621.596 728.062 615.258 721.603C607.651 713.852 605.857 728.835 606.039 733C606.216 737.03 606.966 740.949 607 745M633 742C637.207 739.568 642.738 728.291 640.383 723.337C638.008 718.344 634.679 726.003 634.265 728.001C633.855 729.982 633.545 732.004 633.211 734C632.75 736.757 632.706 739.231 633 742z"/>
<path style="fill:#bb282b; stroke:none;" d="M661 749C650.102 748.822 657.035 729.723 662 725L663 738C670.582 732.416 664.839 715.051 656.279 724.148C651.546 729.177 651.443 739.63 652.773 745.995C653.751 750.674 657.627 753.406 661 749M815 748L809 749C809.652 740.735 810.079 730.482 817 725L816 744C819.358 739.369 821.855 732.825 820.772 727.015C819.624 720.857 813.501 720.075 810.147 725.059C806.375 730.664 805.442 742.543 807.938 748.851C809.671 753.23 813.813 751.374 815 748z"/>
<path style="fill:#171512; stroke:none;" d="M680 740C686.222 736.057 689.366 729.217 690 722C681.84 722.649 680.061 733.125 680 740z"/>
<path style="fill:#bb282b; stroke:none;" d="M1023 723L1024 724L1023 723M427 724L427 726L429 724L427 724M797 730C792.796 737.003 794.979 742.277 795 750L797 750L797 730M432 735L436 732L432 735M403 734L404 735L403 734M1016 734L1017 735L1016 734M736 737L735 750L736 751L738 751L739 750L736 737M419 738C418.425 740.396 418.525 740.487 421 741L419 738M437 743C440.081 743.283 441.144 743.03 442 740L437 743M715 740L713 753L714 753L717 740L715 740z"/>
<path style="fill:#171512; stroke:none;" d="M749 743L750 744L749 743z"/>
<path style="fill:#bb282b; stroke:none;" d="M1009 743L1011 745L1011 743L1009 743M407 746L407 748L409 748L409 746L407 746M397 748L398 751L397 748M446 750L446 754L450 754L446 750M1002 755L1002 757L1004 757L1002 755M430 758L430 760L433 760L433 758L430 758M450 762L451 766L452 766L453 762L450 762M394 769L394 771L396 771L396 769L394 769M460 773L464 770L460 773M986.667 773.333L987.333 773.667L986.667 773.333M448 776L451 778L448 776M468 777L466 781L470 781L468 777M418.667 778.333L419.333 778.667L418.667 778.333M409 783L410 784L409 783M456 786L456 788L459 788L459 786L456 786M426 787L427 788L426 787M475 787L475 792C478.844 790.723 478.844 788.277 475 787M442 788L443 789L442 788M462 792L462 795L465 795L465 792L462 792M482 799L488 798L488 796L482 799M434 799L434 801L436 801L436 799L434 799M419.333 800.667L419.667 801.333L419.333 800.667M450.667 800.333L451.333 800.667L450.667 800.333M472 802L472 805L476 805L476 802L472 802M489 808L494 808C492.228 805.318 490.772 805.318 489 808M500 809L501 814L504 809L500 809M478 812L481 815L478 812M509 816L510 821L512 821C512.494 817.863 512.036 817 509 816M433 818L434 819L433 818M489 825L492 821L489 825M937 822L938 823L937 822M474 824L474 828L476 824L474 824M525 826C517.283 824.868 522.057 833.609 525 826M927 828L928 829L927 828M500 831L501 832L503 829L500 831M441.667 832.333L442.333 832.667L441.667 832.333M528 837C535.309 835.782 529.218 829.691 528 837M482 833L482 836L485 835L485 834L482 833M509 837L513 834L509 837M474 837L477 839L474 837M518 839L519 844L522 843L518 839M537 843L542 844L542 840L537 843M494 841L494 844L498 843L494 841M909 842L909 844L911 844L911 842L909 842M484 845L484 847L486 847L486 845L484 845M504 846L503 849L506 849L504 846M548 847L551 853L551 847L548 847M530 849L530 850L534 851L533 848L530 849M898.667 848.333L899.333 848.667L898.667 848.333M557 855C564.792 858.8 560.916 848.119 557 855M886 853L886 855L888 853L886 853M518 855L521 858L518 855M540 857L540 861L544 860L544 858L540 857M568 857L567 861L571 861L570 857L568 857M549 861L549 862L554 863L554 860L549 861M529 864L532 861L529 864M578 865L584 865C582.63 860.904 579.428 860.947 578 865M504 862L503 865L506 865L504 862z"/>
<path style="fill:#e05457; stroke:none;" d="M531 863L532 864L531 863z"/>
<path style="fill:#bb282b; stroke:none;" d="M867 863L867 866L869 866L869 863L867 863M560 864C560.195 865.806 560.727 868.929 562 866L563 866L564 868L566 867L566 865L560 864M514.333 868.667L514.667 869.333L514.333 868.667M541 868L540 871L543 869L541 868M589 868L590 873L592 873L593 869L589 868M855 868L855 871L858 871L858 868L855 868M571 870C571.942 873.213 574.167 874.05 576 871L571 870M602 872L601 877L605 876L604 872L602 872M846 872L846 875L848 872L846 872M554 877L557 874L554 877M614 875L613 880C616.036 879 616.494 878.137 616 875L614 875M519 876L522 878L519 876M834 876L836 880L834 876M581 881L584 877L581 881M624 878L628 881L628 877L624 878M822 879L822 883L824 879L822 879M539 881L539 883L542 883L542 881L539 881M594 881L594 884L597 884L597 881L594 881M635 881L634 884L638 885L635 881M811 883L811 885L813 885L811 883M571 887L574 884L571 887M647 884L647 889L650 884L647 884M559 885L560 886L559 885M802 885L805 888L804 885L802 885M845 886L846 887L845 886M616 887L615 890L619 890L616 887M606 888L607 892L608 892L608 888L606 888M790 888L790 892L791 892L790 888M658 889L659 893L662 893L662 889L658 889M670 890L669 892L669 893L674 894L670 890M777 893L780 891L777 893M821.667 891.333L822.333 891.667L821.667 891.333M582 892L583 895L585 895L586 892L582 892M630 892L630 894L633 894L633 892L630 892M766 892L765 896L768 892L766 892M681 893L684 896L681 893M691 894L691 896L695 897L696 896L696 894L695 893L691 894M706 894L706 897L709 897L709 894L706 894M752 897L755 894L752 897M718 895L718 898L720 898L720 895L718 895M730 895L729 896L729 897L729 898L732 895L730 895M741 895L740 898L743 896L741 895M650 897L653 900L650 897M567 902L570 900L567 902M662 900L662 902L665 902L665 900L662 900M798.667 900.333L799.333 900.667L798.667 900.333M846 900L847 901L846 900M607 901L607 903L610 903L610 901L607 901M786 901L785 903L787 903L786 901M773.333 902.667L773.667 903.333L773.333 902.667M678 903L679 904L678 903M581 904L584 907L583 904L581 904M751.333 905.667L751.667 906.333L751.333 905.667M631 906L631 908L633 908L633 906L631 906M728 906L729 907L728 906M687 907L687 909L689 907L687 907M794.667 911.333L795.333 911.667L794.667 911.333M610 914L610 916L612 916L610 914M656.667 916.333L657.333 916.667L656.667 916.333M693.667 917.333L694.333 917.667L693.667 917.333M783 917L784 918L783 917M639 921L642 923L642 922L639 921z"/>
</svg>
